<?xml version="1.0" encoding="UTF-8" standalone="no"?>
<!-- Generator: Adobe Illustrator 19.0.0, SVG Export Plug-In . SVG Version: 6.00 Build 0)  -->

<svg
   xmlns:osb="http://www.openswatchbook.org/uri/2009/osb"
   xmlns:dc="http://purl.org/dc/elements/1.1/"
   xmlns:cc="http://creativecommons.org/ns#"
   xmlns:rdf="http://www.w3.org/1999/02/22-rdf-syntax-ns#"
   xmlns:svg="http://www.w3.org/2000/svg"
   xmlns="http://www.w3.org/2000/svg"
   xmlns:xlink="http://www.w3.org/1999/xlink"
   xmlns:sodipodi="http://sodipodi.sourceforge.net/DTD/sodipodi-0.dtd"
   xmlns:inkscape="http://www.inkscape.org/namespaces/inkscape"
   version="1.1"
   id="Layer_1"
   x="0px"
   y="0px"
   viewBox="0 0 512 512"
   style="enable-background:new 0 0 512 512;"
   xml:space="preserve"
   sodipodi:docname="capybara-svgrepo-com.svg"
   inkscape:version="0.92.3 (2405546, 2018-03-11)"><metadata
   id="metadata200"><rdf:RDF><cc:Work
       rdf:about=""><dc:format>image/svg+xml</dc:format><dc:type
         rdf:resource="http://purl.org/dc/dcmitype/StillImage" /></cc:Work></rdf:RDF></metadata><defs
   id="defs198"><linearGradient
   id="linearGradient1030"
   osb:paint="solid"><stop
     style="stop-color:#856b4e;stop-opacity:1;"
     offset="0"
     id="stop1028" /></linearGradient>
	
	
	
<linearGradient
   inkscape:collect="always"
   xlink:href="#linearGradient1030"
   id="linearGradient1032"
   x1="123.86988"
   y1="49.4365"
   x2="388.09612"
   y2="49.4365"
   gradientUnits="userSpaceOnUse" />
	
	
</defs><sodipodi:namedview
   pagecolor="#ffffff"
   bordercolor="#666666"
   borderopacity="1"
   objecttolerance="10"
   gridtolerance="10"
   guidetolerance="10"
   inkscape:pageopacity="0"
   inkscape:pageshadow="2"
   inkscape:window-width="1366"
   inkscape:window-height="713"
   id="namedview196"
   showgrid="false"
   showguides="true"
   inkscape:guide-bbox="true"
   inkscape:zoom="0.7374903"
   inkscape:cx="-97.891494"
   inkscape:cy="237.62639"
   inkscape:window-x="0"
   inkscape:window-y="27"
   inkscape:window-maximized="1"
   inkscape:current-layer="Layer_1" />
<g
   id="g137"
   style="fill:url(#linearGradient1032);fill-opacity:1">
	<path
   style="fill:url(#linearGradient1032);fill-opacity:1"
   d="M181.696,65.849c0,0-40.248-65.849-49.536-65.849s-8.256,98.873-8.256,98.873L181.696,65.849z"
   id="path133" />
	<path
   style="fill:url(#linearGradient1032);fill-opacity:1"
   d="M330.27,65.849c0,0,40.248-65.849,49.536-65.849c9.288,0,8.256,98.873,8.256,98.873L330.27,65.849z"
   id="path135" />
</g>
<path
   style="fill:#C39B6E;"
   d="M256,512c81.872,0,185.928-18.287,209.564-107.328c23.285-87.72-29.233-150.366-44.444-181.632  c-12.384-25.456-16.512-40.592-16.512-74.304C404.608,33.152,256,33.023,256,33.023s-148.608,0.129-148.608,115.713  c0,33.712-4.128,48.848-16.512,74.304c-15.211,31.265-67.729,93.912-44.444,181.632C70.072,493.714,174.128,512,256,512z"
   id="path139" />
<path
   style="fill:#ac8a67;stroke-width:0.96822846"
   d="m 256,82.361 v 0 c -31.918,0 -57.792,24.256 -57.792,54.17806 v 193.49305 c 0,29.92205 25.874,54.17806 57.792,54.17806 v 0 c 31.918,0 57.792,-24.25601 57.792,-54.17806 V 136.53906 C 313.792,106.617 287.918,82.361 256,82.361 Z"
   id="path141"
   inkscape:connector-curvature="0" />
<path
   inkscape:connector-curvature="0"
   id="path143"
   d="m 328.36846,429.03 c 0,36.46813 -144.73692,36.46813 -144.73692,0 0,-92.48408 30.89496,-40.27301 70.86341,-40.27301 39.96845,0 73.87351,-44.06225 73.87351,40.27301 z"
   style="fill:#464655;stroke-width:1.11902761"
   sodipodi:nodetypes="ccsc" /><ellipse
   id="ellipse213"
   ry="35.941689"
   rx="32.012623"
   cy="174.51201"
   cx="158.06877"
   style="fill:#ffffff;stroke-width:1.67731476" />
<path
   style="fill:#c0c0c6;stroke-width:0.91380739"
   d="m 283.628,198.54615 -0.012,-0.009 c -7.849,-5.89958 -17.732,-8.84896 -27.615,-8.84896 -9.883,0 -19.765,2.94854 -27.615,8.84896 l -0.012,0.009 c -34.966,26.27883 -54.932,63.71635 -54.932,102.99932 v 76.1677 c 0,11.42256 11.089,20.68237 24.768,20.68237 h 22.819 c 12.14,0 24.115,-2.36067 34.973,-6.89413 10.859,4.53346 22.832,6.89413 34.973,6.89413 h 22.819 c 13.679,0 24.768,-9.25981 24.768,-20.68237 v -76.1677 C 338.56,262.2625 318.594,224.82581 283.628,198.54615 Z"
   id="path151"
   inkscape:connector-curvature="0" />
<path
   inkscape:connector-curvature="0"
   id="path153"
   d="m 308.029,241.48 h -9.262 c -6.409,0 -12.73,1.492 -18.461,4.358 l -13.228,6.614 c -6.973,3.487 -15.181,3.487 -22.154,0 l -13.228,-6.614 c -5.732,-2.866 -12.053,-4.358 -18.461,-4.358 h -9.262 c -15.647,0 -29.672,11.716 -30.49,27.342 -0.873,16.665 12.381,30.45 28.855,30.45 h 4.128 c 24.768,0 24.768,33.024 49.536,33.024 24.768,0 24.768,-33.024 49.536,-33.024 h 4.128 c 16.474,0 29.728,-13.785 28.855,-30.45 -0.82,-15.626 -14.846,-27.342 -30.492,-27.342 z"
   style="fill:#9e9ea6" /><path
   inkscape:connector-curvature="0"
   id="path155"
   d="m 256.002,391.50141 c 2.687,1.344 5.80417,2.19111 8.254,2.95887 v -28.313 c 0,-4.559 -3.697,-8.256 -8.256,-8.256 -4.559,0 -8.256,3.697 -8.256,8.256 v 28.313 c 2.87356,-0.91607 5.571,-1.61587 8.258,-2.95887 z"
   style="fill:#9e9ea6"
   sodipodi:nodetypes="ccssscc" />
<g
   id="g163">
	<circle
   style="fill:#464655;"
   cx="202.334"
   cy="270.374"
   r="12.384"
   id="circle159" />
	<circle
   style="fill:#464655;"
   cx="309.662"
   cy="270.374"
   r="12.384"
   id="circle161" />
</g>
<g
   id="g165">
</g>
<g
   id="g167">
</g>
<g
   id="g169">
</g>
<g
   id="g171">
</g>
<g
   id="g173">
</g>
<g
   id="g175">
</g>
<g
   id="g177">
</g>
<g
   id="g179">
</g>
<g
   id="g181">
</g>
<g
   id="g183">
</g>
<g
   id="g185">
</g>
<g
   id="g187">
</g>
<g
   id="g189">
</g>
<g
   id="g191">
</g>
<g
   id="g193">
</g>
<ellipse
   style="fill:#ffffff;stroke-width:1.67731476"
   cx="357.49948"
   cy="174.51201"
   rx="32.012623"
   ry="35.941689"
   id="ellipse1034" /><ellipse
   style="fill:#464655;stroke-width:1.35665023"
   cx="364.16214"
   cy="174.88339"
   rx="25.325674"
   ry="29.721132"
   id="ellipse1036" /><ellipse
   id="ellipse258"
   ry="29.721132"
   rx="25.325674"
   cy="174.64369"
   cx="164.75928"
   style="fill:#464655;stroke-width:1.35665023" /></svg>